<svg width="175" height="51" fill="none" xmlns="http://www.w3.org/2000/svg"><path fill="#fff" d="M0 0h175v51H0z"/><path d="M40.034 2.33c-.229.55-.457 1.277-.685 2.183a55.821 55.821 0 00-.489 2.523c-.13.938-.293 2.232-.489 3.882a147.615 147.615 0 00-.538 5.338c-.163 1.909-.31 3.882-.44 5.92a87.066 87.066 0 00-.196 5.629c0 .68.017 1.148.05 1.407.065.227.179.502.342.825-.261.291-.587.502-.978.63a4.513 4.513 0 01-1.125.34 6.048 6.048 0 01-1.076.098 8.344 8.344 0 01-.782.048c-.815 0-1.614-.242-2.396-.728-.75-.517-1.386-1.455-1.907-2.814-.294-.744-.554-1.73-.783-2.96a951.485 951.485 0 00-.586-3.737c-.163-1.229-.31-2.313-.44-3.25-.13-.971-.261-1.538-.392-1.7-.39.81-.782 1.91-1.173 3.3a78.182 78.182 0 00-.978 4.174 83.002 83.002 0 00-.734 4.027c-.163 1.23-.244 2.12-.244 2.67 0 .42.065.646.195.678-.195.195-.619.373-1.271.534-.62.162-1.125.243-1.516.243h-.195a4.76 4.76 0 01-1.32-.388 10.264 10.264 0 01-1.028-.486c-.39-.226-.684-.436-.88-.63.033-.453.05-.922.05-1.408V21.497c0-.874-.017-1.86-.05-2.96 0-1.1-.016-2.12-.049-3.057 0-.971-.016-1.78-.049-2.427v-1.019a34.327 34.327 0 01-.146-2.377 15.827 15.827 0 00-.343-2.815c-.163-.938-.456-1.747-.88-2.426-.39-.68-1.01-1.02-1.858-1.02-.456 0-.88.114-1.271.34-.359.227-.718.47-1.076.728-.685.55-1.288 1.278-1.81 2.184A15.17 15.17 0 009.277 9.51a24.383 24.383 0 00-.684 3.057 23.03 23.03 0 00-.196 2.863c0 .291.016.68.049 1.165.065.453.163.905.293 1.358.13.453.31.858.538 1.213.228.324.538.486.93.486l1.27-.194c.196 0 .424.048.685.145.261.097.505.227.734.388.26.162.472.34.635.534a.962.962 0 01.245.631c0 .162-.082.307-.245.437-.163.13-.358.242-.586.34a5.176 5.176 0 01-1.272.194c-1.108 0-2.037-.21-2.787-.631a4.903 4.903 0 01-1.711-1.65 6.613 6.613 0 01-.93-2.426A15.589 15.589 0 016 14.655c0-.81.082-1.731.244-2.766a19.1 19.1 0 01.783-3.203 23.335 23.335 0 011.222-3.154 14.027 14.027 0 011.81-2.766A8.624 8.624 0 0112.357.825a5.782 5.782 0 012.836-.728c.098 0 .326.065.685.194.39.097.619.162.684.194.88.356 1.63.987 2.25 1.893.619.906 1.124 1.973 1.515 3.202.424 1.23.75 2.588.978 4.077.261 1.455.457 2.927.587 4.415.13 1.456.212 2.88.245 4.27.032 1.392.049 2.62.049 3.688v.922c.032.292.048.567.048.825 1.37-3.72 2.299-6.745 2.788-9.074.489-2.361.733-3.947.733-4.755l-.098-.777c.066-.032.147-.064.245-.097.13-.064.228-.097.293-.097.228 0 .538.065.93.194.423.13.847.291 1.27.486.425.161.8.355 1.125.582.359.194.587.388.685.582.196.291.31.55.342.777.065.226.13.598.196 1.116v.194c.326 4.335.75 7.699 1.271 10.093.522 2.361.994 3.542 1.418 3.542h.05c.227-.194.39-.76.488-1.698.13-.97.245-2.216.342-3.736.098-1.553.196-3.349.294-5.387.13-2.07.293-4.302.489-6.696.26-3.138.489-5.419.684-6.842C35.975.728 36.301 0 36.757 0c.261 0 .57.08.93.243.39.161.75.355 1.075.582.359.226.669.469.93.728.26.226.39.437.39.63l-.048.146zM55.115 23.05c0 .808-.147 1.714-.44 2.717a9.402 9.402 0 01-1.37 2.814c-.619.841-1.418 1.553-2.396 2.136-.945.582-2.086.873-3.422.873-1.272 0-2.348-.227-3.228-.68a6.378 6.378 0 01-2.2-1.843c-.554-.777-.962-1.683-1.223-2.718a15.98 15.98 0 01-.342-3.348c0-1.132.13-2.378.391-3.736.26-1.36.668-2.62 1.223-3.786.554-1.196 1.255-2.183 2.102-2.96.848-.808 1.875-1.213 3.08-1.213.588 0 1.142.13 1.663.389a4.39 4.39 0 012.298 2.28c.229.518.36 1.052.392 1.602l.049.679c0 .776-.13 1.634-.391 2.572-.261.906-.636 1.763-1.125 2.572a7.568 7.568 0 01-1.81 1.99 4.073 4.073 0 01-2.444.776 5.158 5.158 0 01-1.32-.194v1.407c0 .226.065.55.195.97.163.42.391.841.685 1.262a5.06 5.06 0 001.124 1.067c.49.292 1.076.437 1.76.437.946 0 1.712-.178 2.299-.534a4.997 4.997 0 001.516-1.455 6.58 6.58 0 00.88-1.941c.228-.744.407-1.456.538-2.136.098-.452.195-.76.293-.921.098-.162.261-.243.49-.243.488 0 .733.275.733.825v.34zm-5.77-7.522c0-.259-.082-.534-.245-.825-.13-.291-.391-.437-.782-.437-.587 0-1.092.308-1.516.922a9.374 9.374 0 00-1.076 2.135 15.65 15.65 0 00-.587 2.281c-.13.712-.195 1.181-.195 1.407v.146c0 .291.016.534.049.728.065.162.244.242.538.242h.244c.652 0 1.206-.242 1.663-.727a5.275 5.275 0 001.075-1.747c.294-.68.506-1.375.636-2.087.13-.712.196-1.294.196-1.747v-.29z" fill="#262626"/><path d="M65.556 27.514c0 .776-.26 1.375-.782 1.795a5.033 5.033 0 01-1.81.922 8.39 8.39 0 01-2.004.34c-.652.065-1.125.097-1.418.097a12.6 12.6 0 01-1.712-.146 14.155 14.155 0 01-1.956-.436 5.24 5.24 0 01-1.614-.922 1.892 1.892 0 01-.635-1.456c0-.356.13-.599.391-.728.293-.162.57-.243.831-.243.359 0 .701.13 1.027.389.359.258.717.533 1.076.825.391.29.815.566 1.271.825.457.258.978.388 1.565.388.26 0 .603-.081 1.027-.243.456-.194.684-.518.684-.97 0-.453-.195-.89-.586-1.31-.359-.421-.831-.858-1.418-1.31a50.762 50.762 0 00-1.81-1.408 21.356 21.356 0 01-1.858-1.553 9.916 9.916 0 01-1.418-1.892 4.707 4.707 0 01-.538-2.233c0-1.132.359-2.086 1.076-2.863a8.592 8.592 0 012.592-1.843 13.598 13.598 0 013.08-.971c1.044-.194 1.858-.291 2.445-.291.555 0 1.109.113 1.663.34.554.226.831.663.831 1.31 0 .194-.049.485-.147.873a3.539 3.539 0 01-.39 1.068c-.164.356-.392.68-.685.97-.294.26-.669.389-1.125.389a.654.654 0 01-.391-.146 5.322 5.322 0 00-.44-.388 2.061 2.061 0 00-.538-.389.915.915 0 00-.587-.194c-1.14 0-1.94.34-2.396 1.02-.456.646-.685 1.342-.685 2.086 0 .647.375 1.326 1.125 2.038.783.712 1.63 1.423 2.543 2.135a29.207 29.207 0 012.543 2.135c.782.68 1.173 1.343 1.173 1.99z" fill="#262626"/><path d="M66.61 21.74c.032-1.65.08-3.333.146-5.047.065-1.715.13-3.3.196-4.756 0-.259-.261-.436-.783-.534a49.743 49.743 0 00-1.76-.29 8.74 8.74 0 01-1.76-.438c-.522-.226-.783-.582-.783-1.067 0-.42.424-.663 1.272-.728.847-.065 2.102-.097 3.765-.097.13 0 .212-.194.244-.582.066-.388.098-.874.098-1.456.033-.615.049-1.262.049-1.941.032-.68.065-1.31.098-1.892.032-.615.081-1.117.146-1.505.098-.388.212-.582.343-.582.163 0 .456.032.88.097s.864.162 1.32.291c.457.097.848.227 1.174.388.358.162.538.34.538.534l-.538 6.308c0 .194.163.34.489.437.358.065.798.113 1.32.146h1.712c.619 0 1.19.048 1.71.145.555.097.995.26 1.321.486.359.194.538.5.538.921 0 .065-.032.178-.098.34-.065.13-.146.194-.244.194-.065 0-.163-.048-.294-.145-.097-.097-.39-.146-.88-.146-.13 0-.489.016-1.075.049-.587.032-1.207.08-1.859.145-.652.065-1.255.146-1.809.243-.522.065-.815.162-.88.291-.033.065-.082.453-.147 1.165-.032.679-.081 1.585-.147 2.717a579.577 579.577 0 00-.097 3.93 206.323 206.323 0 00-.05 4.61c0 .615.033 1.214.099 1.796.065.582.163 1.116.293 1.601.13.453.293.825.489 1.116.228.291.489.437.782.437.424 0 .815-.178 1.174-.534.358-.356.684-.84.978-1.456.293-.614.554-1.31.782-2.086.229-.776.424-1.57.587-2.378.098-.485.212-.825.342-1.019a.635.635 0 01.587-.34c.228 0 .424.081.587.243.195.13.293.453.293.97 0 .324-.016.534-.049.631-.097.583-.293 1.391-.586 2.427a16.132 16.132 0 01-1.125 3.008 10.143 10.143 0 01-1.712 2.572c-.684.744-1.483 1.116-2.396 1.116-.88 0-1.646-.259-2.298-.776-.652-.485-1.206-1.165-1.662-2.038-.424-.906-.75-1.957-.978-3.154a21.527 21.527 0 01-.343-3.931v-.437z" fill="#262626"/><path d="M95.627 25.233c-.065.453-.228.987-.489 1.601a9.08 9.08 0 01-1.027 1.796 5.838 5.838 0 01-1.418 1.407 2.875 2.875 0 01-1.76.582c-.978 0-1.842-.372-2.592-1.116-.717-.744-1.157-1.795-1.32-3.154a370.09 370.09 0 01-.685 1.796c-.26.679-.587 1.31-.978 1.892a5.88 5.88 0 01-1.369 1.456c-.489.42-1.076.63-1.76.63-.196 0-.343-.015-.44-.048a2.702 2.702 0 01-.343-.145 3.395 3.395 0 00-.39-.098 2.63 2.63 0 00-.588-.048c-.782 0-1.45-.259-2.005-.776-.521-.486-.945-1.116-1.27-1.893a11.978 11.978 0 01-.734-2.523 19.106 19.106 0 01-.196-2.62c0-1.942.098-3.786.293-5.532.229-1.747.587-3.284 1.076-4.61.49-1.359 1.125-2.427 1.907-3.203.783-.809 1.728-1.213 2.836-1.213.652 0 1.141.065 1.467.194.359.097.685.226.978.388.294.13.604.275.93.437.358.162.847.291 1.466.388.685.388 1.158.857 1.419 1.407.293.518.472 1.084.537 1.699.098.614.13 1.261.098 1.94-.032.648 0 1.295.098 1.942 0 .032.065.08.196.145.163.065.342.146.537.243.196.065.359.178.49.34.162.129.244.307.244.533v.195c-.326.84-.522 1.585-.587 2.232a23.724 23.724 0 00-.098 2.329c0 .453.017.954.05 1.504.064.518.146 1.02.244 1.504.13.453.31.842.538 1.165.228.291.521.437.88.437.391 0 .733-.194 1.027-.582a4.83 4.83 0 00.782-1.31 9.746 9.746 0 00.538-1.553c.163-.518.26-.906.293-1.165.066-.388.229-.582.49-.582.162 0 .309.097.44.29.162.163.244.47.244.923v.388c0 .097-.016.226-.049.388zm-9.046-7.861c0-.356-.033-.776-.098-1.262a5.932 5.932 0 00-.342-1.358 2.733 2.733 0 00-.734-1.068c-.326-.291-.766-.437-1.32-.437-.913 0-1.663.42-2.25 1.262-.554.809-.994 1.78-1.32 2.912a16.948 16.948 0 00-.635 3.445c-.098 1.164-.147 2.086-.147 2.766 0 .517.016 1.148.049 1.892.065.712.163 1.391.293 2.038.13.647.31 1.197.538 1.65.26.453.587.68.978.68.945 0 1.663-.356 2.152-1.068.521-.744.912-1.65 1.173-2.717.261-1.1.44-2.265.538-3.494.13-1.262.245-2.41.342-3.445.066-.55.212-.89.44-1.02.229-.161.343-.274.343-.34v-.436z" fill="#262626"/><path d="M110.408 31.784c0 .324-.146.55-.44.68-.293.129-.57.194-.831.194l-.978-.098c-.163 0-.245.097-.245.292l-.049.582c.033.873.049 1.973.049 3.3v3.833c0 1.294-.049 2.556-.146 3.785-.066 1.262-.245 2.378-.538 3.348-.294 1.003-.717 1.796-1.272 2.378-.521.615-1.255.922-2.2.922-.815 0-1.679-.048-2.592-.146a7.517 7.517 0 01-2.445-.582 4.623 4.623 0 01-1.809-1.456c-.456-.614-.684-1.455-.684-2.523s.114-2.167.342-3.3c.26-1.1.62-2.183 1.076-3.25a22.326 22.326 0 011.613-3.01 18.046 18.046 0 012.103-2.523c.391-.388.815-.792 1.271-1.213a35.27 35.27 0 011.272-.97v-.049a42.284 42.284 0 00.195-4.125c-.163.292-.358.696-.587 1.214a8.845 8.845 0 01-.831 1.407 5.057 5.057 0 01-1.027 1.164c-.391.356-.831.534-1.32.534a1.52 1.52 0 01-.684-.145c-.196-.097-.473-.146-.832-.146-.913-.065-1.679-.307-2.298-.728-.587-.42-1.06-1.003-1.418-1.747-.326-.744-.554-1.617-.685-2.62a27.717 27.717 0 01-.195-3.445c0-1.52.081-3.09.244-4.707.196-1.618.522-3.09.978-4.416.457-1.359 1.06-2.459 1.81-3.3.782-.873 1.76-1.31 2.933-1.31.131 0 .294.049.489.146.229.097.457.21.685.34.261.096.505.21.733.339.261.097.457.162.587.194.652.13 1.255.291 1.809.485a4.578 4.578 0 011.419.777c.391.29.7.695.929 1.213.228.485.342 1.1.342 1.844 0 .517-.049.986-.147 1.407-.065.42-.098.954-.098 1.601 0 .26.098.437.294.534.195.097.407.178.635.243.261.064.489.145.685.242.196.065.293.227.293.486 0 .064-.081.226-.244.485-.13.226-.212.372-.245.437-.097.258-.179.679-.244 1.261-.065.55-.114 1.165-.147 1.844a657.8 657.8 0 00-.098 2.038v3.543c0 .679.017 1.245.049 1.698h.196c.065 0 .13-.016.196-.049h.146c.294 0 .685.081 1.174.243.521.194.782.47.782.825zm-6.259-14.994c0-.356-.032-.76-.098-1.213a5.127 5.127 0 00-.342-1.262 2.358 2.358 0 00-.733-1.02c-.294-.29-.669-.436-1.125-.436-.619 0-1.206.243-1.76.728-.522.485-.995 1.18-1.418 2.087-.392.873-.718 1.957-.978 3.25-.229 1.262-.343 2.702-.343 4.32 0 .679.016 1.39.05 2.135.064.711.146 1.358.244 1.94.13.583.31 1.068.537 1.457.261.388.587.582.978.582.685 0 1.288-.291 1.81-.874.521-.582.945-1.294 1.271-2.135.359-.873.62-1.763.782-2.669.196-.938.31-1.747.343-2.426.032-.938.081-1.569.146-1.892.066-.356.131-.583.196-.68.196-.259.31-.566.342-.922.066-.356.098-.68.098-.97zm-.195 16.886c-.75.518-1.467 1.246-2.152 2.184a18.533 18.533 0 00-1.711 3.057c-.49 1.1-.88 2.216-1.174 3.349-.26 1.132-.391 2.15-.391 3.057 0 .323.032.679.098 1.067.065.388.163.744.293 1.068.163.355.375.647.636.873.293.227.635.34 1.027.34.684 0 1.238-.291 1.662-.874.457-.55.799-1.213 1.027-1.99a9.933 9.933 0 00.489-2.377c.098-.809.147-1.456.147-1.94v-.438-1.116c.032-.55.049-1.326.049-2.329v-3.93zM125.008 23.68c0 .227-.082.777-.245 1.65-.13.841-.391 1.747-.782 2.718a8.293 8.293 0 01-1.516 2.523c-.62.744-1.418 1.116-2.396 1.116-1.043 0-1.875-.372-2.494-1.116-.619-.712-1.092-1.57-1.418-2.572a15.09 15.09 0 01-.636-3.203 33.692 33.692 0 01-.146-2.814c0-.841.048-1.682.146-2.523.098-.874.163-1.731.196-2.572 0-.259-.131-.42-.391-.486a3.06 3.06 0 00-.734-.096c-.391 0-.636.048-.733.145a.721.721 0 00-.196.34l-.196 1.553a73.34 73.34 0 01-.44 3.008c-.13.938-.293 1.78-.489 2.523-.163.712-.375 1.294-.635 1.747-.229.42-.506.631-.832.631h-.048a.877.877 0 01-.392-.097c-.097-.065-.146-.226-.146-.485 0-.13.032-.324.097-.583.261-1.132.424-2.07.489-2.814a60.12 60.12 0 00.147-1.99v-.34-.581c.033-.227.049-.502.049-.825v-1.262-1.116c0-.388-.033-.809-.098-1.262l-.146-2.863c0-.194.081-.372.244-.534a2.42 2.42 0 01.636-.436c.26-.13.538-.227.831-.291.293-.065.554-.098.782-.098.555 0 .832.356.832 1.068v.243l-.049 1.067v.291c0 .227.049.373.146.437.098.032.294.081.587.146h.147c.261.032.685.064 1.271.097.587.032 1.174.097 1.761.194.586.097 1.092.259 1.516.485.456.194.684.485.684.874 0 .129-.033.323-.098.582-.065.226-.146.469-.244.728a8.403 8.403 0 00-.245.63c-.065.195-.097.324-.097.389a27.364 27.364 0 00-.881 6.987c0 .194.017.55.049 1.068.033.518.098 1.051.196 1.601s.244 1.035.44 1.456c.196.42.44.63.733.63.489 0 .929-.29 1.321-.872.391-.615.733-1.31 1.027-2.087.293-.809.521-1.618.684-2.426.196-.81.326-1.408.391-1.796.066-.356.163-.566.294-.63a.88.88 0 01.44-.146c.456 0 .684.29.684.873 0 .065-.016.243-.049.534 0 .259-.016.453-.048.582z" fill="#262626"/><path d="M142.95 25.233c-.065.453-.228.987-.489 1.601a9.077 9.077 0 01-1.027 1.796 5.837 5.837 0 01-1.418 1.407 2.873 2.873 0 01-1.76.582c-.978 0-1.842-.372-2.592-1.116-.717-.744-1.157-1.795-1.32-3.154-.196.518-.424 1.116-.685 1.796a9.48 9.48 0 01-.978 1.892 5.869 5.869 0 01-1.369 1.456c-.489.42-1.076.63-1.76.63a1.49 1.49 0 01-.44-.048 2.731 2.731 0 01-.343-.145 3.356 3.356 0 00-.391-.098 2.628 2.628 0 00-.587-.048c-.782 0-1.45-.259-2.004-.776-.522-.486-.946-1.116-1.272-1.893a11.978 11.978 0 01-.733-2.523 19.016 19.016 0 01-.196-2.62c0-1.942.098-3.786.293-5.532.229-1.747.587-3.284 1.076-4.61.489-1.359 1.125-2.427 1.907-3.203.783-.809 1.728-1.213 2.836-1.213.652 0 1.141.065 1.467.194.359.097.685.226.978.388.294.13.603.275.929.437.359.162.848.291 1.467.388.685.388 1.158.857 1.418 1.407.294.518.473 1.084.538 1.699.098.614.131 1.261.098 1.94-.032.648 0 1.295.098 1.942 0 .032.065.08.196.145.163.065.342.146.537.243.196.065.359.178.489.34.163.129.245.307.245.533v.195c-.326.84-.522 1.585-.587 2.232a23.745 23.745 0 00-.098 2.329c0 .453.017.954.049 1.504.065.518.147 1.02.245 1.504.13.453.309.842.538 1.165.228.291.521.437.88.437.391 0 .733-.194 1.027-.582a4.84 4.84 0 00.782-1.31 9.737 9.737 0 00.538-1.553c.163-.518.261-.906.293-1.165.066-.388.229-.582.489-.582.163 0 .31.097.44.29.163.163.245.47.245.923v.388c0 .097-.016.226-.049.388zm-9.046-7.861c0-.356-.033-.776-.098-1.262a5.921 5.921 0 00-.342-1.358 2.734 2.734 0 00-.734-1.068c-.326-.291-.766-.437-1.32-.437-.913 0-1.663.42-2.249 1.262-.555.809-.995 1.78-1.321 2.912a16.893 16.893 0 00-.635 3.445c-.098 1.164-.147 2.086-.147 2.766 0 .517.016 1.148.049 1.892.065.712.163 1.391.293 2.038.131.647.31 1.197.538 1.65.261.453.587.68.978.68.945 0 1.663-.356 2.152-1.068.521-.744.912-1.65 1.173-2.717.261-1.1.44-2.265.538-3.494.13-1.262.245-2.41.342-3.445.066-.55.212-.89.44-1.02.229-.161.343-.274.343-.34v-.436z" fill="#262626"/><path d="M157.927 18.585c-.457.874-.88 1.796-1.272 2.766-.391.97-.684 1.73-.88 2.28-.032.163-.13.502-.293 1.02a39.45 39.45 0 01-.489 1.747c-.163.614-.31 1.229-.44 1.844-.131.614-.196 1.116-.196 1.504 0 .162-.146.307-.44.437-.293.13-.668.194-1.125.194-.717 0-1.287-.097-1.711-.291a2.069 2.069 0 01-.978-.922c-.196-.453-.326-1.036-.391-1.747a56.822 56.822 0 01-.049-2.572v-3.64c0-.258-.016-.517-.049-.776 0-.259-.049-.42-.147-.485-.163.065-.375.485-.635 1.262-.229.776-.457 1.73-.685 2.863a79.585 79.585 0 00-.538 3.493 25.367 25.367 0 00-.244 3.3c0 .356-.196.566-.587.63a6.936 6.936 0 01-1.223.098c-.13 0-.358-.032-.684-.097a10.93 10.93 0 01-.929-.146 3.612 3.612 0 01-.832-.29c-.26-.098-.423-.227-.489-.39-.163-.42-.293-1.115-.391-2.086-.065-.97-.098-2.474-.098-4.512 0-1.197.017-2.588.049-4.174.066-1.585.131-3.445.196-5.58 0-.291-.016-.663-.049-1.116-.033-.485-.049-.76-.049-.825 0-.259.098-.404.294-.437.228-.064.391-.097.489-.097.228 0 .489.033.782.097.326.033.636.081.929.146.326.065.619.145.88.242.261.065.44.13.538.195v11.694c.163-.647.342-1.391.538-2.232.228-.873.473-1.73.733-2.572a26.97 26.97 0 01.93-2.33c.326-.71.668-1.228 1.026-1.552.131-.097.375-.162.734-.194a5.17 5.17 0 01.88-.097c.163 0 .359.032.587.097.261.032.505.097.733.194.229.097.424.226.587.388.196.13.31.291.342.485V24.7c0 .194.033.291.098.291s.245-.436.538-1.31c.326-.873.701-1.908 1.125-3.105.424-1.197.88-2.427 1.369-3.688.489-1.262.929-2.265 1.32-3.009.065-.13.277-.194.636-.194.391-.032.733-.048 1.027-.048.228 0 .538.08.929.242.391.13.766.324 1.125.582.391.26.717.55.978.874.293.324.44.663.44 1.019 0 .065-.098.259-.294.582a2.55 2.55 0 00-.391.922 20.125 20.125 0 00-.489 2.67c-.065.873-.098 1.989-.098 3.347 0 .583.017 1.165.049 1.747.065.583.147 1.116.245 1.602.13.453.293.825.489 1.116.195.29.456.437.782.437.456 0 .864-.146 1.222-.437.359-.324.669-.744.93-1.262.26-.518.489-1.116.684-1.795.196-.712.359-1.44.489-2.184.163-.776.457-1.165.88-1.165.261 0 .424.065.489.195.098.129.147.42.147.873 0 .259-.016.437-.049.534-.032.42-.179 1.084-.44 1.99-.228.873-.57 1.762-1.027 2.668a9.04 9.04 0 01-1.614 2.33c-.652.646-1.401.97-2.249.97-1.01 0-1.842-.243-2.494-.728-.652-.453-1.157-1.068-1.516-1.844-.358-.809-.619-1.73-.782-2.766a26.091 26.091 0 01-.196-3.251v-.34l.294-3.979z" fill="#262626"/></svg>